# xmcd
#
# Track frame offsets: 
#        150
#        13112
#        23116
#        35867
#        49259
#        63033
#        76066
#        88880
#        100041
#        112383
#        126771
#        140012
#        153637
#        164957
#        177083
#        189912
#        203139
#        216277
#        227224
#        241900
#        254652
#        267609
#        281963
#        294685
#        307815
#        320692
#
# Disc length: 4412 seconds
#
# Revision: 2
# Processed by: cddbd v1.5.2PL0 Copyright (c) Steve Scherf et al.
# Submitted via: ExactAudioCopyFreeDBPlugin 1.0
#
DISCID=93113a1a
DTITLE=Muddy Waters - The Chess Singles Collection [CD2)
DYEAR=2015
DGENRE=Blues
TTITLE0=I'm Your Hoochie Coochie Man
TTITLE1=She's So Pretty
TTITLE2=Just Make Love To Me
TTITLE3=Oh, Yeh
TTITLE4=I'm Ready
TTITLE5=I Don't Know Why
TTITLE6=I'm A Natural Born Lover
TTITLE7=Loving Man
TTITLE8=I Want to Be Loved
TTITLE9=My Eyes (Keep Me in Trouble)
TTITLE10=Mannish Boy
TTITLE11=Young Fashioned Ways
TTITLE12=Sugar Sweet
TTITLE13=Trouble No More
TTITLE14=Forty Days and Forty Nights
TTITLE15=All Aboard
TTITLE16=Don't Go No Farther
TTITLE17=Diamonds at Your Feet
TTITLE18=Just to Be With You
TTITLE19=I Got to Find My Baby
TTITLE20=Got My Mojo Working
TTITLE21=Rock Me
TTITLE22=Good News
TTITLE23=Come Home Baby, I Wish You Would
TTITLE24=Live The Life I Love (Love The Life I Live)
TTITLE25=Evil
EXTD=
EXTT0=
EXTT1=
EXTT2=
EXTT3=
EXTT4=
EXTT5=
EXTT6=
EXTT7=
EXTT8=
EXTT9=
EXTT10=
EXTT11=
EXTT12=
EXTT13=
EXTT14=
EXTT15=
EXTT16=
EXTT17=
EXTT18=
EXTT19=
EXTT20=
EXTT21=
EXTT22=
EXTT23=
EXTT24=
EXTT25=
PLAYORDER=
